<?xml version="1.0" encoding="UTF-8"?>
<svg xmlns="http://www.w3.org/2000/svg" xmlns:xlink="http://www.w3.org/1999/xlink" width="40pt" height="50pt" viewBox="0 0 40 50" version="1.1">
<g id="surface1">
<path style=" stroke:none;fill-rule:nonzero;fill:rgb(3.529412%,18.039216%,12.54902%);fill-opacity:1;" d="M 18.085938 0.382812 L 26.304688 0.382812 L 26.304688 37.644531 C 22.09375 38.429688 19.007812 38.742188 15.636719 38.742188 C 5.617188 38.742188 0.390625 34.300781 0.390625 25.78125 C 0.390625 17.574219 5.9375 12.242188 14.515625 12.242188 C 15.847656 12.242188 16.867188 12.34375 18.085938 12.660156 Z M 18.085938 19.140625 C 17.128906 18.828125 16.328125 18.722656 15.316406 18.722656 C 11.160156 18.722656 8.757812 21.230469 8.757812 25.625 C 8.757812 29.910156 11.050781 32.261719 15.269531 32.261719 C 16.175781 32.261719 16.921875 32.210938 18.089844 32.054688 Z M 39.351562 12.816406 L 39.351562 31.476562 C 39.351562 37.90625 38.871094 40.992188 37.433594 43.65625 C 36.097656 46.21875 34.339844 47.835938 30.71875 49.617188 L 23.09375 46.0625 C 26.71875 44.390625 28.476562 42.925781 29.605469 40.675781 C 30.777344 38.371094 31.152344 35.710938 31.152344 28.707031 L 31.152344 12.816406 Z M 31.144531 0.425781 L 39.351562 0.425781 L 39.351562 8.6875 L 31.144531 8.6875 Z M 31.144531 0.425781 "/>
</g>
</svg>
